# xmcd CD database file
# Copyright (C) 1996 Ti Kan
#
# Track frame offsets:
#	160
#	10172
#	23257
#	32432
#	41767
#	53245
#	65642
#	71942
#	82892
#	105755
#	119697
#	128967
#	143032
#	157327
#	172355
#	186725
#	204500
#
# Disc length: 2893 seconds
#
# Revision: 1
# Processed by: cddbd v1.4b41PL1 Copyright (c) Steve Scherf et al.
# Submitted via: EasyCD 2.21 - (C) 1996 Greg Leichner
#
DISCID=f60b4b11
DTITLE=Sonny Terry - The Folkways Years 1944-1963
DYEAR=1900
DGENRE=
TTITLE0=Old Jabo
TTITLE1=Going Down Slow
TTITLE2=Crow Jane Blues
TTITLE3=Harmonica with Slaps
TTITLE4=Pick A Bale of Cotton
TTITLE5=Dark Road
TTITLE6=Skip To My Lou
TTITLE7=The Woman is Killing Me
TTITLE8=Jail House Blues
TTITLE9=Fox Chase/Right on that Shore
TTITLE10=Shortnin' Bread
TTITLE11=Sweet Woman
TTITLE12=Lost John
TTITLE13=A Man Is Nothing but a Fool
TTITLE14=Poor Man (But a Good man)
TTITLE15=I've Been Your Doggie Since I Been Your Man
TTITLE16=Custard Pie Blues
EXTD=
EXTT0=
EXTT1=
EXTT2=
EXTT3=
EXTT4=
EXTT5=
EXTT6=
EXTT7=
EXTT8=
EXTT9=
EXTT10=
EXTT11=
EXTT12=
EXTT13=
EXTT14=
EXTT15=
EXTT16=
PLAYORDER=
